# xmcd
#
# Track frame offsets: 
#        150
#        10105
#        25812
#        39757
#        55114
#        64057
#        79997
#        86812
#        98075
#        107092
#        119832
#        136600
#        145040
#        160640
#        170672
#        184870
#        196180
#        205152
#        221042
#        231467
#
# Disc length: 3262 seconds
#
# Revision: 0
# Processed by: cddbd v1.5.2PL0 Copyright (c) Steve Scherf et al.
# Submitted via: ExactAudioCopy v0.95b4
#
DISCID=110cbc14
DTITLE=Boxcar Willie - King of the Road
DYEAR=1997
DGENRE=Country
TTITLE0=King of the Road
TTITLE1=Wabash cannonball
TTITLE2=You are my sunshine
TTITLE3=Boxcar blues
TTITLE4=Don't let the stars get in your eyes
TTITLE5=Your cheatin' heart
TTITLE6=I saw the light
TTITLE7=Wreck of the old ' 97
TTITLE8=Hank and the hobo
TTITLE9=Peace in the valley
TTITLE10=Mule train
TTITLE11=Hey good lookin'
TTITLE12=Kaw-Liga
TTITLE13=Move it on over
TTITLE14=London leaves
TTITLE15=Rollin' in my sweet baby's arms
TTITLE16=Divorce me C.O.D.
TTITLE17=Red river valley
TTITLE18=Heaven
TTITLE19=San Antonio Rose
EXTD=
EXTT0=
EXTT1=
EXTT2=
EXTT3=
EXTT4=
EXTT5=
EXTT6=
EXTT7=
EXTT8=
EXTT9=
EXTT10=
EXTT11=
EXTT12=
EXTT13=
EXTT14=
EXTT15=
EXTT16=
EXTT17=
EXTT18=
EXTT19=
PLAYORDER=
